{"title":"Iron Man 3 2013 R6 LiNE AAC x264-SSDD","uid":8467365,"size":637597580,"categoryP":"video","categoryS":"movies","magnet":"?xt=urn:btih:a2760db4503b8728beac1da70b08c15ee99c74d4&amp;dn=Iron+Man+3+2013+R6+LiNE+AAC+x264-SSDD&amp;tr=udp%3A%2F%2Ftracker.openbittorrent.com%3A80&amp;tr=udp%3A%2F%2Fopen.demonii.com%3A1337&amp;tr=udp%3A%2F%2Ftracker.coppersurfer.tk%3A6969&amp;tr=udp%3A%2F%2Fexodus.desync.com%3A6969","seeders":0,"leechers":0,"uploader":"xxxlavalxxx","files":3,"time":1368390888,"description":" &lt;a href=&quot;\nhttp://www.imdb.com/title/tt1300854/&quot; rel=&quot;nofollow&quot; target=&quot;_NEW&quot;&gt;\nhttp://www.imdb.com/title/tt1300854/&lt;/a&gt;\n\n\n[b]Marvel's &quot;Iron Man 3&quot; pits brash-but-brilliant industrialist Tony Stark/Iron Man against an enemy whose reach knows no bounds. When Stark finds his personal world destroyed at his enemy's hands, he embarks on a harrowing quest to find those responsible. This journey, at every turn, will test his mettle. With his back against the wall, Stark is left to survive by his own devices, relying on his ingenuity and instincts to protect those closest to him. As he fights his way back, Stark discovers the answer to the question that has secretly haunted him: does the man make the suit or does the suit make the man? \n\n\n\nDirector:\n Shane Black \n\nWriters:\n Drew Pearce (screenplay), Shane Black (screenplay)\n\nStars:\n Robert Downey Jr., Gwyneth Paltrow, Guy Pearce\n\nGenres:\n  Action |  Sci-Fi |  Thriller \n\nCountry:\n USA | China \n\nLanguage:\n English \n[/b]\n\n\n\nSource - Iron Man 3 2013 R6 LiNE READNFO XViD - JUSTiCE\n\n NOTES - Enjoy.\n\n General\n Complete name                            : Iron Man 3 2013 R6 LiNE AAC x264-SSDD.mp4\n Format                                   : MPEG-4\n Format profile                           : Base Media\n Codec ID                                 : isom\n File size                                : 600 MiB\n Duration                                 : 2h 8mn\n Overall bit rate mode                    : Variable\n Overall bit rate                         : 652 Kbps\n\n Video\n ID                                       : 1\n Format                                   : AVC\n Format/Info                              : Advanced Video Codec\n Format profile                           : &lt;a class=&quot;__cf_email__&quot; href=&quot;/cdn-cgi/l/email-protection&quot; data-cfemail=&quot;064e6f616e464a322837&quot;&gt;[email&amp;#160;protected]&lt;/a&gt;&lt;script data-cfhash='f9e31' type=&quot;text/javascript&quot;&gt;\n/* &lt;![CDATA[ */!function(){try{var t=&quot;currentScript&quot;in document?document.currentScript:function(){for(var t=document.getElementsByTagName(&quot;script&quot;),e=t.length;e--;)if(t[e].getAttribute(&quot;data-cfhash&quot;))return t[e]}();if(t&amp;&amp;t.previousSibling){var e,r,n,i,c=t.previousSibling,a=c.getAttribute(&quot;data-cfemail&quot;);if(a){for(e=&quot;&quot;,r=parseInt(a.substr(0,2),16),n=2;a.length-n;n+=2)i=parseInt(a.substr(n,2),16)^r,e+=String.fromCharCode(i);e=document.createTextNode(e),c.parentNode.replaceChild(e,c)}t.parentNode.removeChild(t);}}catch(u){}}()/* ]]&gt; */&lt;/script&gt;\n Format settings, CABAC                   : Yes\n Format settings, ReFrames                : 4 frames\n Codec ID                                 : avc1\n Codec ID/Info                            : Advanced Video Coding\n Duration                                 : 2h 8mn\n Bit rate                                 : 584 Kbps\n Maximum bit rate                         : 2 050 Kbps\n Width                                    : 720 pixels\n Height                                   : 304 pixels\n Display aspect ratio                     : 2.35:1\n Frame rate mode                          : Constant\n Frame rate                               : 29.970 fps\n Color space                              : YUV\n Chroma subsampling                       : 4:2:0\n Bit depth                                : 8 bits\n Scan type                                : Progressive\n Bits/(Pixel*Frame)                       : 0.089\n Stream size                              : 538 MiB (90%)\n Writing library                          : x264 core 130 r2273 b3065e6\n\n Audio\n ID                                       : 2\n Format                                   : AAC\n Format/Info                              : Advanced Audio Codec\n Format profile                           : LC\n Codec ID                                 : 40\n Duration                                 : 2h 8mn\n Bit rate mode                            : Variable\n Bit rate                                 : 64.0 Kbps\n Maximum bit rate                         : 68.3 Kbps\n Channel(s)                               : 2 channels\n Channel positions                        : Front: L R\n Sampling rate                            : 48.0 KHz\n Compression mode                         : Lossy\n Stream size                              : 59.0 MiB (10%)\n\n\n\n    &lt;a href=&quot;\thttp://addpix.net/viewer.php?file=34784425223819477023.jpg&quot; rel=&quot;nofollow&quot; target=&quot;_NEW&quot;&gt;\thttp://addpix.net/viewer.php?file=34784425223819477023.jpg&lt;/a&gt;\n    &lt;a href=&quot;\thttp://addpix.net/viewer.php?file=83427805534685447685.jpg&quot; rel=&quot;nofollow&quot; target=&quot;_NEW&quot;&gt;\thttp://addpix.net/viewer.php?file=83427805534685447685.jpg&lt;/a&gt;\n    &lt;a href=&quot;\thttp://addpix.net/viewer.php?file=34119802363960744570.jpg&quot; rel=&quot;nofollow&quot; target=&quot;_NEW&quot;&gt;\thttp://addpix.net/viewer.php?file=34119802363960744570.jpg&lt;/a&gt;\n    &lt;a href=&quot;\thttp://addpix.net/viewer.php?file=24539151282094112870.jpg&quot; rel=&quot;nofollow&quot; target=&quot;_NEW&quot;&gt;\thttp://addpix.net/viewer.php?file=24539151282094112870.jpg&lt;/a&gt;\n    &lt;a href=&quot;\thttp://addpix.net/viewer.php?file=71286658094066323407.jpg&quot; rel=&quot;nofollow&quot; target=&quot;_NEW&quot;&gt;\thttp://addpix.net/viewer.php?file=71286658094066323407.jpg&lt;/a&gt;\n    &lt;a href=&quot;\thttp://addpix.net/viewer.php?file=21764063312121348296.jpg&quot; rel=&quot;nofollow&quot; target=&quot;_NEW&quot;&gt;\thttp://addpix.net/viewer.php?file=21764063312121348296.jpg&lt;/a&gt;","torrent":{"xt":"urn:btih:a2760db4503b8728beac1da70b08c15ee99c74d4","amp;dn":"Iron+Man+3+2013+R6+LiNE+AAC+x264-SSDD","amp;tr":["udp%3A%2F%2Ftracker.openbittorrent.com%3A80","udp%3A%2F%2Fopen.demonii.com%3A1337","udp%3A%2F%2Ftracker.coppersurfer.tk%3A6969","udp%3A%2F%2Fexodus.desync.com%3A6969"],"infoHash":"a2760db4503b8728beac1da70b08c15ee99c74d4","infoHashBuffer":{"type":"Buffer","data":[162,118,13,180,80,59,135,40,190,172,29,167,11,8,193,94,233,156,116,212]},"announce":[],"urlList":[]}}